<svg xmlns="http://www.w3.org/2000/svg" viewBox="0 0 161.26 56"><title>1Asset 2</title><g id="Layer_2" data-name="Layer 2"><g id="Layer_1-2" data-name="Layer 1"><rect x="0.49" y="0.49" width="160.29" height="55.03" rx="6.92" ry="6.92" fill="#fff"/><path d="M153.86,56H7.41A7.41,7.41,0,0,1,0,48.59V7.41A7.41,7.41,0,0,1,7.41,0H153.86a7.41,7.41,0,0,1,7.4,7.41V48.59A7.41,7.41,0,0,1,153.86,56ZM7.41,1A6.45,6.45,0,0,0,1,7.41V48.59A6.45,6.45,0,0,0,7.41,55H153.86a6.45,6.45,0,0,0,6.43-6.44V7.41A6.45,6.45,0,0,0,153.86,1Z" fill="#006eb7"/><path d="M160.78,48.46a6.92,6.92,0,0,1-6.92,6.92H7.41A6.92,6.92,0,0,1,.49,48.46V37.71H160.78V48.46Z" fill="#006eb7" fill-rule="evenodd"/><path d="M31.6,23.13A4.93,4.93,0,0,0,31.9,25a4.26,4.26,0,0,0,.87,1.38,4.85,4.85,0,0,0,1.31,1,6.6,6.6,0,0,0,1.62.56,8.11,8.11,0,0,0,1.79.19A8.52,8.52,0,0,0,40,27.71a5.28,5.28,0,0,0,1.8-.93,3.86,3.86,0,0,0,1.09-1.4,4.16,4.16,0,0,0,.37-1.77A3.65,3.65,0,0,0,43,22.24a3.26,3.26,0,0,0-.6-1,4.28,4.28,0,0,0-.84-.71,5.39,5.39,0,0,0-.92-.48,8.73,8.73,0,0,0-.86-.29c-.26-.07-.48-.13-.65-.16l-1.76-.46q-.74-.19-1.2-.36a3.25,3.25,0,0,1-.72-.34.88.88,0,0,1-.35-.4,1.13,1.13,0,0,1-.1-.54,1.39,1.39,0,0,1,.19-.73,1.53,1.53,0,0,1,.49-.49,2.23,2.23,0,0,1,.68-.26,3,3,0,0,1,.73-.09,4.67,4.67,0,0,1,1.34.18,1.88,1.88,0,0,1,1,.64A2.12,2.12,0,0,1,39.83,18h3a4.52,4.52,0,0,0-.3-1.7,3.67,3.67,0,0,0-.82-1.25,4.41,4.41,0,0,0-1.22-.86,6.15,6.15,0,0,0-1.52-.49,8.4,8.4,0,0,0-1.68-.16,6.83,6.83,0,0,0-1.5.17,5.54,5.54,0,0,0-1.4.49,4.55,4.55,0,0,0-1.18.83,4.12,4.12,0,0,0-.8,1.17,4.08,4.08,0,0,0-.3,1.52,3.75,3.75,0,0,0,.24,1.36,2.89,2.89,0,0,0,.63,1,3.86,3.86,0,0,0,.92.72,8.1,8.1,0,0,0,1.12.5c.4.14.81.26,1.22.37l1.21.3c.39.09.77.2,1.12.31a4.31,4.31,0,0,1,.92.38,2,2,0,0,1,.63.53,1.29,1.29,0,0,1,.23.76,1.41,1.41,0,0,1-.18.73,1.44,1.44,0,0,1-.46.49,2.6,2.6,0,0,1-.65.31,4.27,4.27,0,0,1-.71.15,5.89,5.89,0,0,1-.69.05,4.41,4.41,0,0,1-1.17-.15,2.91,2.91,0,0,1-1-.44,2.28,2.28,0,0,1-.67-.8,2.73,2.73,0,0,1-.25-1.17Zm25.62-4.59a5.91,5.91,0,0,0-.66-2.13,5.23,5.23,0,0,0-1.32-1.56,5.92,5.92,0,0,0-1.83-1,6.93,6.93,0,0,0-2.16-.33,7.57,7.57,0,0,0-2.35.37,6.14,6.14,0,0,0-3.29,2.59,7.41,7.41,0,0,0-.87,2,9.24,9.24,0,0,0-.29,2.33,8.84,8.84,0,0,0,.29,2.28,7.16,7.16,0,0,0,.87,2,6.11,6.11,0,0,0,3.29,2.57,7.28,7.28,0,0,0,2.35.37,6.76,6.76,0,0,0,2.34-.4,5.37,5.37,0,0,0,1.86-1.14,5.63,5.63,0,0,0,1.28-1.78,6.83,6.83,0,0,0,.61-2.34h-3a4.73,4.73,0,0,1-.5,1.62,2.87,2.87,0,0,1-1,1.08,3.07,3.07,0,0,1-1.59.4,3.74,3.74,0,0,1-1.44-.26,3.11,3.11,0,0,1-1.06-.7,3.59,3.59,0,0,1-.72-1,5.17,5.17,0,0,1-.41-1.26,6.92,6.92,0,0,1-.13-1.37,7.43,7.43,0,0,1,.13-1.42A5.4,5.4,0,0,1,48,18.15a3.43,3.43,0,0,1,.72-1.06,3.14,3.14,0,0,1,1.06-.71,3.74,3.74,0,0,1,1.44-.26,3.22,3.22,0,0,1,1.08.18,3.5,3.5,0,0,1,.93.51,3.07,3.07,0,0,1,.67.77,2.45,2.45,0,0,1,.34,1Zm2.19,9.18h3v-5.4h3a2.91,2.91,0,0,1,1.23.22,1.53,1.53,0,0,1,.72.68,3.29,3.29,0,0,1,.35,1.19c0,.37.09.76.11,1.15s.07.79.12,1.16a4.06,4.06,0,0,0,.26,1h3A2.37,2.37,0,0,1,71,27a5.74,5.74,0,0,1-.16-.88c0-.31-.06-.61-.07-.9s0-.55,0-.77a7,7,0,0,0-.15-1,3.89,3.89,0,0,0-.33-1,2.84,2.84,0,0,0-.61-.77,2.33,2.33,0,0,0-.93-.47v0a3.27,3.27,0,0,0,1.67-1.35,4,4,0,0,0,.52-2.11,3.82,3.82,0,0,0-.28-1.48A3.72,3.72,0,0,0,69.83,15a3.91,3.91,0,0,0-1.28-.82,4.45,4.45,0,0,0-1.68-.3H59.41V27.72Zm3-11.47h3.34a2.3,2.3,0,0,1,1.55.46,1.83,1.83,0,0,1,.54,1.46,1.9,1.9,0,0,1-.54,1.51,2.3,2.3,0,0,1-1.55.47H62.45v-3.9Zm22.7-2.36h-3v8.6a4.53,4.53,0,0,1-.27,1.69,1.84,1.84,0,0,1-.89,1,3.72,3.72,0,0,1-1.71.32,3.79,3.79,0,0,1-1.48-.25,2.09,2.09,0,0,1-.87-.68,2.55,2.55,0,0,1-.4-1,5.1,5.1,0,0,1-.1-1.11v-8.6h-3v8.6a6.3,6.3,0,0,0,.71,3.11,4.31,4.31,0,0,0,2,1.84,8.59,8.59,0,0,0,6.36,0,4.35,4.35,0,0,0,2-1.85,6.16,6.16,0,0,0,.71-3.1v-8.6Zm2.62,13.83h2.85V18h0L94,27.72h2.35l3.39-9.8h0v9.8h2.85V13.89H98.39L95.32,23.4h0l-3.24-9.51H87.77Z" fill="#006eb7" fill-rule="evenodd"/><path d="M153.58,17.68h-2.82l-2.17,6.79h0l-2.25-6.79h-2.91L146.88,27a1.54,1.54,0,0,1,.12.61,1.37,1.37,0,0,1-.28.84,1.15,1.15,0,0,1-.78.41c-.33,0-.75,0-1.25-.06l-.34,0V31c.61.06,1.17.09,1.67.09a3.94,3.94,0,0,0,2.19-.52,3.33,3.33,0,0,0,1.22-1.72l4.15-11.17Zm-13.72,4.93a5.87,5.87,0,0,1-.12,1.22,2.85,2.85,0,0,1-.39,1,2.07,2.07,0,0,1-.73.71,2.21,2.21,0,0,1-1.1.26,2.07,2.07,0,0,1-1.07-.27,2.24,2.24,0,0,1-.74-.73,3.27,3.27,0,0,1-.44-1,4.5,4.5,0,0,1-.15-1.16,5.19,5.19,0,0,1,.13-1.2,2.83,2.83,0,0,1,.41-1,1.87,1.87,0,0,1,.75-.7,2.22,2.22,0,0,1,1.11-.25,2.2,2.2,0,0,1,1.09.25,1.8,1.8,0,0,1,.73.69,3.11,3.11,0,0,1,.39,1,5.16,5.16,0,0,1,.13,1.21Zm0,5h2.59V13.9h-2.73v5h0a2.92,2.92,0,0,0-1.24-1.09,3.82,3.82,0,0,0-1.7-.39,4.17,4.17,0,0,0-1.89.42A3.76,3.76,0,0,0,133.51,19a5.14,5.14,0,0,0-.84,1.65,6.82,6.82,0,0,0-.27,1.93,7.28,7.28,0,0,0,.27,2,5.32,5.32,0,0,0,.85,1.7,4,4,0,0,0,1.41,1.18,4.11,4.11,0,0,0,1.92.43,4,4,0,0,0,1.77-.38,2.77,2.77,0,0,0,1.24-1.16h0V27.6Zm-9.15-9.92H128v5.2a3.63,3.63,0,0,1-.5,2.18,1.89,1.89,0,0,1-1.61.66,1.49,1.49,0,0,1-1.33-.6,3.19,3.19,0,0,1-.41-1.84v-5.6h-2.73v6.1a7.83,7.83,0,0,0,.16,1.71,3.29,3.29,0,0,0,.58,1.27,2.64,2.64,0,0,0,1.12.82,4.78,4.78,0,0,0,1.77.29,3.66,3.66,0,0,0,1.71-.42,3.25,3.25,0,0,0,1.32-1.23h.06V27.6h2.59V17.68Zm-17,0v1.8h1.65v5.86a2.61,2.61,0,0,0,.24,1.18,1.73,1.73,0,0,0,.67.72,2.55,2.55,0,0,0,1,.36,7.54,7.54,0,0,0,1.23.09,11,11,0,0,0,1.6-.09V25.49a4.46,4.46,0,0,1-.85.08,1.34,1.34,0,0,1-.92-.23,1.36,1.36,0,0,1-.23-.92V19.5h2V17.7Zm-9.87,6.68a3.48,3.48,0,0,0,.44,1.62,3.11,3.11,0,0,0,1,1.09,4.73,4.73,0,0,0,1.46.6,7.92,7.92,0,0,0,1.73.18,7.62,7.62,0,0,0,1.69-.18,4.8,4.8,0,0,0,1.45-.59,3,3,0,0,0,1-1.07,3.28,3.28,0,0,0,.38-1.61,2.52,2.52,0,0,0-.25-1.14,2.17,2.17,0,0,0-.69-.78,4.34,4.34,0,0,0-1-.51,9.61,9.61,0,0,0-1.23-.36l-.75-.17a10.14,10.14,0,0,1-1.77-.5.83.83,0,0,1-.57-.8.72.72,0,0,1,.44-.73,2.64,2.64,0,0,1,1.08-.2,2.52,2.52,0,0,1,1.31.3,1.25,1.25,0,0,1,.55,1h2.59a3.53,3.53,0,0,0-.45-1.5,3,3,0,0,0-1-1,4.31,4.31,0,0,0-1.35-.52,7.27,7.27,0,0,0-1.6-.17,7.67,7.67,0,0,0-1.62.16,4.56,4.56,0,0,0-1.37.5,2.63,2.63,0,0,0-1,1,3.08,3.08,0,0,0-.36,1.54,2.16,2.16,0,0,0,.26,1.08,2.39,2.39,0,0,0,.7.75,4.18,4.18,0,0,0,1,.48c.36.12.76.23,1.22.34a14,14,0,0,1,2.4.66,1,1,0,0,1,.69.87,1,1,0,0,1-.54,1,2.73,2.73,0,0,1-2.72-.11,1.44,1.44,0,0,1-.61-1.25Z" fill="#50b748" fill-rule="evenodd"/><rect x="115.48" y="14.02" width="2.65" height="2.65" fill="#50b748"/><path d="M18.76,8.46h0A10.15,10.15,0,0,1,25.65,11c-.41.21-.74.46-1.11.69a9.08,9.08,0,0,0-5.79-2h0A9.71,9.71,0,0,0,9,19.32H9a9.71,9.71,0,0,0,9.6,9.8h0a9.71,9.71,0,0,0,9.8-9.61h0a9.27,9.27,0,0,0-.41-3c.34-.32.69-.63,1-.9a10.76,10.76,0,0,1,.64,3.92h0A11,11,0,0,1,18.54,30.38h0A11,11,0,0,1,7.69,19.31h0A11,11,0,0,1,18.76,8.47Zm0,2.34h0A8.6,8.6,0,0,0,10,19.34h0A8.6,8.6,0,0,0,18.56,28h0a8.62,8.62,0,0,0,8.71-8.53h0a8.14,8.14,0,0,0-.2-2.11A11.18,11.18,0,0,0,26,18.77v.73h0a7.38,7.38,0,0,1-7.44,7.29h0a7.38,7.38,0,0,1-7.29-7.44h0a7.37,7.37,0,0,1,7.44-7.29h0a7.29,7.29,0,0,1,4,1.21,6.24,6.24,0,0,1,1-.89,8.29,8.29,0,0,0-4.93-1.58Z" fill="#006eb7" fill-rule="evenodd"/><path d="M15.67,13.84A6.33,6.33,0,0,0,12.54,18l2.83,6.65a6.25,6.25,0,0,0,3.45.93,5.93,5.93,0,0,0,1.47-.21Z" fill="#50b748" fill-rule="evenodd"/><path d="M39.35,7.79c-.22,0-.44,0-.65,0a28.19,28.19,0,0,0-20.28,11c.56,1.2,2.46,6,2.6,6.33C25.36,15.71,31.81,10,39.35,7.79Z" fill="#50b748" fill-rule="evenodd"/><path d="M11.05,41.66h1.26l3.36,8.59H14.4l-.93-2.58H9.83l-1,2.58H7.69Zm-.86,5H13.1l-1.43-4h0Z" fill="#fff"/><path d="M21.5,50.25h-1v-1h0a2.16,2.16,0,0,1-2,1.13c-1.64,0-2.15-.94-2.15-2.28V44h1v4.21a1.18,1.18,0,0,0,1.26,1.26,1.75,1.75,0,0,0,1.84-2V44h1Z" fill="#fff"/><path d="M24.46,44H25.7v.9H24.46V48.8c0,.47.13.55.77.55h.47v.9h-.78c-1.06,0-1.49-.21-1.49-1.36v-4H22.38V44h1.05V42.17h1Z" fill="#fff"/><path d="M26.83,41.66h1V45h0a2.09,2.09,0,0,1,2-1.06c1.64,0,2.14.94,2.14,2.27v4.09H31V46a1.17,1.17,0,0,0-1.27-1.25,1.75,1.75,0,0,0-1.84,2v3.51h-1Z" fill="#fff"/><path d="M36.21,43.89a3,3,0,0,1,3,3.26,3,3,0,1,1-6,0A3,3,0,0,1,36.21,43.89Zm0,5.61c1.07,0,1.94-.85,1.94-2.35s-.87-2.36-1.94-2.36-1.94.84-1.94,2.36S35.14,49.5,36.21,49.5Z" fill="#fff"/><path d="M40.4,44h1v1.31h0a2.26,2.26,0,0,1,2.29-1.45V45c-1.65,0-2.25.94-2.25,2.52v2.76h-1Z" fill="#fff"/><path d="M45.53,42.91h-1V41.66h1ZM44.5,44h1v6.22h-1Z" fill="#fff"/><path d="M46.61,49.47l3.76-4.54H46.85V44h4.84v.7l-3.8,4.62h4v.9H46.61Z" fill="#fff"/><path d="M58.2,48.28a2.5,2.5,0,0,1-2.66,2.12c-2,0-2.92-1.37-3-3.27a3,3,0,0,1,2.92-3.24c2.2,0,2.88,2.06,2.82,3.56H53.64a1.84,1.84,0,0,0,1.94,2,1.5,1.5,0,0,0,1.61-1.22Zm-1-1.73a1.8,1.8,0,0,0-1.8-1.76,1.77,1.77,0,0,0-1.78,1.76Z" fill="#fff"/><path d="M64.92,50.25h-1v-.84h0a2.08,2.08,0,0,1-2,1C60,50.4,59,48.88,59,47.13s.94-3.24,2.84-3.24a2.38,2.38,0,0,1,2,1h0v-3.2h1ZM62,49.5c1.37,0,1.9-1.18,1.9-2.35s-.55-2.36-2-2.36S60.11,46,60.11,47.2,60.71,49.5,62,49.5Z" fill="#fff"/><path d="M72,42.62H69.1v-1H76v1H73.11v7.63H72Z" fill="#fff"/><path d="M75.61,44h1v1.31h0a2.25,2.25,0,0,1,2.29-1.45V45c-1.65,0-2.26.94-2.26,2.52v2.76h-1Z" fill="#fff"/><path d="M85.17,50.23a1.36,1.36,0,0,1-.73.17c-.53,0-.87-.29-.87-1a2.78,2.78,0,0,1-2.19,1c-1.13,0-2.06-.51-2.06-1.75,0-1.4,1.05-1.71,2.11-1.91s2.09-.14,2.09-.92-.73-1-1.38-1c-.87,0-1.51.26-1.56,1.18h-1c.06-1.54,1.25-2.08,2.64-2.08,1.12,0,2.33.25,2.33,1.71v3.2c0,.48,0,.7.33.7a1.1,1.1,0,0,0,.31-.06ZM83.51,47a5.27,5.27,0,0,1-1.86.42c-.67.12-1.25.36-1.25,1.12s.58.92,1.21.92c1.34,0,1.9-.85,1.9-1.41Z" fill="#fff"/><path d="M87.2,42.91h-1V41.66h1Zm-1,1.12h1v6.22h-1Z" fill="#fff"/><path d="M88.79,44h1v1h0a2.16,2.16,0,0,1,2-1.13c1.64,0,2.15.94,2.15,2.27v4.09h-1V46a1.17,1.17,0,0,0-1.26-1.25,1.75,1.75,0,0,0-1.84,2v3.51h-1Z" fill="#fff"/><path d="M96.57,42.91h-1V41.66h1Zm-1,1.12h1v6.22h-1Z" fill="#fff"/><path d="M98.16,44h1v1h0a2.16,2.16,0,0,1,2-1.13c1.64,0,2.14.94,2.14,2.27v4.09h-1V46A1.17,1.17,0,0,0,101,44.79a1.75,1.75,0,0,0-1.85,2v3.51h-1Z" fill="#fff"/><path d="M110.22,49.73c0,2-.92,3.05-2.89,3.05-1.16,0-2.51-.47-2.57-1.83h1c0,.75.94,1,1.61,1,1.34,0,1.87-1,1.87-2.36v-.4h0a2.1,2.1,0,0,1-1.94,1.13c-1.86,0-2.78-1.46-2.78-3.16,0-1.47.72-3.28,2.87-3.28a2,2,0,0,1,1.86,1h0V44h1Zm-1-2.71c0-1.1-.48-2.23-1.77-2.23s-1.84,1.07-1.84,2.26.41,2.37,1.76,2.37S109.21,48.18,109.21,47Z" fill="#fff"/><path d="M115.28,41.66h3.77a2.54,2.54,0,1,1,0,5.08h-2.63v3.51h-1.14Zm1.14,4.12h2.24c1.29,0,1.88-.56,1.88-1.58s-.59-1.58-1.88-1.58h-2.24Z" fill="#fff"/><path d="M128.43,50.23a1.37,1.37,0,0,1-.74.17c-.53,0-.87-.29-.87-1a2.75,2.75,0,0,1-2.19,1c-1.13,0-2-.51-2-1.75,0-1.4,1-1.71,2.1-1.91s2.1-.14,2.1-.92-.74-1-1.39-1c-.86,0-1.5.26-1.55,1.18h-1c.06-1.54,1.25-2.08,2.63-2.08,1.12,0,2.34.25,2.34,1.71v3.2c0,.48,0,.7.32.7a1.16,1.16,0,0,0,.32-.06ZM126.76,47a5.16,5.16,0,0,1-1.85.42c-.67.12-1.25.36-1.25,1.12s.58.92,1.2.92c1.35,0,1.9-.85,1.9-1.41Z" fill="#fff"/><path d="M129.34,44h1v1.31h0a2.25,2.25,0,0,1,2.29-1.45V45c-1.65,0-2.26.94-2.26,2.52v2.76h-1Z" fill="#fff"/><path d="M134.81,44h1.24v.9h-1.24V48.8c0,.47.13.55.77.55h.47v.9h-.79c-1.06,0-1.48-.21-1.48-1.36v-4h-1.06V44h1.06V42.17h1Z" fill="#fff"/><path d="M137.18,44h1v1h0a2.16,2.16,0,0,1,2-1.13c1.64,0,2.14.94,2.14,2.27v4.09h-1V46A1.17,1.17,0,0,0,140,44.79a1.75,1.75,0,0,0-1.84,2v3.51h-1Z" fill="#fff"/><path d="M149.18,48.28a2.51,2.51,0,0,1-2.66,2.12c-2,0-2.92-1.37-3-3.27a3,3,0,0,1,2.92-3.24c2.2,0,2.88,2.06,2.82,3.56h-4.66a1.84,1.84,0,0,0,1.94,2,1.5,1.5,0,0,0,1.61-1.22Zm-1-1.73a1.79,1.79,0,0,0-3.57,0Z" fill="#fff"/><path d="M150.3,44h1v1.31h0a2.25,2.25,0,0,1,2.29-1.45V45c-1.65,0-2.26.94-2.26,2.52v2.76h-1Z" fill="#fff"/></g></g></svg>