<svg xmlns="http://www.w3.org/2000/svg" viewBox="0 0 196.52 48"><g id="Layer_2" data-name="Layer 2"><g id="Layer_1-2" data-name="Layer 1"><path d="M34.29,14.05h-17a3.25,3.25,0,1,0,0,6.49H27.61a10.81,10.81,0,1,1-10.31-14A10.66,10.66,0,0,1,22,7.57H31.6a17.3,17.3,0,1,0,3,9.73A17.47,17.47,0,0,0,34.29,14.05Z" fill="#f7b250"/><text transform="translate(43.16 45.19)" font-size="13.11" fill="#303960" font-family="HelveticaNeueLTStd-Roman, Helvetica Neue LT Std">Training Leaders</text><path d="M8.5,43l2.3,5,3.38-9.3A21.49,21.49,0,0,1,6.52,36L3.18,45.22l5-2.31A.28.28,0,0,1,8.5,43Z" fill="#303960" fill-rule="evenodd"/><path d="M23.79,48l2.31-5a.28.28,0,0,1,.36-.13l4.95,2.31L28,36.07a21.43,21.43,0,0,1-7.67,2.63Z" fill="#303960" fill-rule="evenodd"/><path d="M57.69,24.66a6.41,6.41,0,0,1-5.21,2.61c-5.87,0-9.32-4.4-9.32-9.89,0-5.66,3.45-10.06,9.32-10.06,3.88,0,7.55,2.4,8,6.72h-4a3.89,3.89,0,0,0-4-3.2c-3.74,0-5.15,3.2-5.15,6.54,0,3.17,1.41,6.37,5.15,6.37A4.12,4.12,0,0,0,57,19.64H52.8V16.53h8V26.82H58.11Z" fill="#303960"/><path d="M66.59,20.84c.1,2.41,1.27,3.5,3.37,3.5a3.11,3.11,0,0,0,3-1.79h3.32a6.19,6.19,0,0,1-6.43,4.64c-4.33,0-7-3-7-7.25s2.84-7.28,7-7.28c4.67,0,6.93,3.95,6.66,8.18Zm6.13-2.39c-.34-1.92-1.17-2.94-3-2.94a3,3,0,0,0-3.13,2.94Z" fill="#303960"/><path d="M83.24,13H86v2.53H83.24v6.83c0,1.28.32,1.6,1.59,1.6A5.1,5.1,0,0,0,86,23.88v3a15.23,15.23,0,0,1-2.2.13c-2.31,0-4.33-.53-4.33-3.28V15.56H77.19V13h2.28V8.9h3.77Z" fill="#303960"/><path d="M100.6,14.18a4.09,4.09,0,0,0-4.14-3.34c-3.75,0-5.15,3.2-5.15,6.54,0,3.17,1.4,6.37,5.15,6.37,2.55,0,4-1.76,4.3-4.27h4c-.43,4.75-3.69,7.79-8.34,7.79-5.87,0-9.32-4.4-9.32-9.89,0-5.66,3.45-10.06,9.32-10.06,4.17,0,7.68,2.46,8.18,6.86Z" fill="#303960"/><path d="M110.09,20.84c.1,2.4,1.27,3.5,3.37,3.5a3.1,3.1,0,0,0,3-1.79h3.32a6.18,6.18,0,0,1-6.42,4.64c-4.33,0-7-3-7-7.25s2.85-7.28,7-7.28c4.67,0,6.93,3.94,6.66,8.18Zm6.13-2.4c-.34-1.92-1.17-2.93-3-2.93a3,3,0,0,0-3.13,2.93Z" fill="#303960"/><path d="M122,13h3.59v2.56h0A4.86,4.86,0,0,1,130,12.66a2.71,2.71,0,0,1,.82.13v3.52a6.79,6.79,0,0,0-1.35-.13c-2.76,0-3.72,2-3.72,4.42v6.22H122Z" fill="#303960"/><path d="M141.51,7.78h4.14l7.92,12.77h.05V7.78h3.9v19h-4.17l-7.88-12.75h-.06V26.82h-3.9Z" fill="#303960"/><path d="M167.19,12.66c4.33,0,7.12,2.88,7.12,7.28s-2.79,7.25-7.12,7.25-7.09-2.88-7.09-7.25S162.89,12.66,167.19,12.66Zm0,11.68c2.58,0,3.35-2.22,3.35-4.4s-.77-4.43-3.35-4.43-3.32,2.21-3.32,4.43S164.64,24.34,167.19,24.34Z" fill="#303960"/><path d="M192.19,26.82h-3.88l-2.44-9.26h-.06l-2.33,9.26h-3.91L175.22,13h4l2.52,9.36h.06L184.06,13h3.67l2.33,9.33h.06L192.64,13h3.88Z" fill="#303960"/><rect x="133.04" y="8.9" width="3.77" height="2.67" fill="#303960"/><path d="M139.57,15.56V13h-8.82v2.53H133V23.7c0,2.74,2,3.28,4.33,3.28a14,14,0,0,0,2.2-.14v-3a5.79,5.79,0,0,1-1.17.11c-1.27,0-1.59-.32-1.59-1.6V15.56Z" fill="#303960"/></g></g></svg>